<?xml version="1.0" encoding="UTF-8" standalone="no"?>
<!-- Created with Inkscape (http://www.inkscape.org/) -->

<svg
   xmlns:dc="http://purl.org/dc/elements/1.1/"
   xmlns:cc="http://creativecommons.org/ns#"
   xmlns:rdf="http://www.w3.org/1999/02/22-rdf-syntax-ns#"
   xmlns:svg="http://www.w3.org/2000/svg"
   xmlns="http://www.w3.org/2000/svg"
   xmlns:sodipodi="http://sodipodi.sourceforge.net/DTD/sodipodi-0.dtd"
   xmlns:inkscape="http://www.inkscape.org/namespaces/inkscape"
   width="609"
   height="282.99994"
   id="svg4599"
   version="1.1"
   inkscape:version="0.91 r13725"
   sodipodi:docname="404sitenotfound.svg">
  <defs
     id="defs4601" />
  <sodipodi:namedview
     id="base"
     pagecolor="#ffffff"
     bordercolor="#666666"
     borderopacity="1.0"
     inkscape:pageopacity="0.0"
     inkscape:pageshadow="2"
     inkscape:zoom="1.3036995"
     inkscape:cx="391.85336"
     inkscape:cy="135.44667"
     inkscape:document-units="px"
     inkscape:current-layer="text19644"
     showgrid="false"
     fit-margin-top="0"
     fit-margin-left="0"
     fit-margin-right="0"
     fit-margin-bottom="0"
     inkscape:window-width="1916"
     inkscape:window-height="1035"
     inkscape:window-x="4"
     inkscape:window-y="1"
     inkscape:window-maximized="1"
     inkscape:snap-global="true"
     inkscape:snap-nodes="false"
     inkscape:snap-bbox="true"
     inkscape:snap-bbox-edge-midpoints="true" />
  <metadata
     id="metadata4604">
    <rdf:RDF>
      <cc:Work
         rdf:about="">
        <dc:format>image/svg+xml</dc:format>
        <dc:type
           rdf:resource="http://purl.org/dc/dcmitype/StillImage" />
        <dc:title />
      </cc:Work>
    </rdf:RDF>
  </metadata>
  <g
     inkscape:label="Layer 1"
     inkscape:groupmode="layer"
     id="layer1"
     transform="translate(-70.5,-390.86221)">
    <g
       transform="matrix(0.95733731,0,0,1.0445639,2,0)"
       style="font-style:normal;font-weight:normal;font-size:44.03507233px;line-height:125%;font-family:sans-serif;letter-spacing:0px;word-spacing:0px;fill:#4d4d4d;fill-opacity:1;stroke:none;stroke-width:1px;stroke-linecap:butt;stroke-linejoin:miter;stroke-opacity:1"
       id="text19644">
      <g
         id="g19815">
        <rect
           ry="3.3139081"
           y="390.86221"
           x="70.5"
           height="282.99994"
           width="609"
           id="rect4008"
           style="fill:#698094;fill-opacity:1;stroke:none;display:inline"
           transform="matrix(1.0445639,0,0,0.95733732,-2.0891278,0)" />
        <rect
           ry="1"
           y="420.86221"
           x="73.5"
           height="34"
           width="603"
           id="rect3952"
           style="fill:#cfd5dd;fill-opacity:1;stroke:none;display:inline"
           transform="matrix(1.0445639,0,0,0.95733732,-2.0891278,0)" />
        <rect
           style="fill:#cfd5dd;fill-opacity:1;stroke:none;display:inline"
           id="rect3950"
           width="603"
           height="213"
           x="73.5"
           y="457.86221"
           ry="1"
           transform="matrix(1.0445639,0,0,0.95733732,-2.0891278,0)" />
        <path
           sodipodi:nodetypes="csccccc"
           inkscape:connector-curvature="0"
           id="path3965"
           d="m 140.5,397.86222 125,0 c 19,0 5,23 25,23 l 0,10 -175,0 0,-10 c 20,0 6,-23 25,-23 z"
           style="fill:#cfd5dd;fill-opacity:1;stroke:none;display:inline"
           transform="matrix(1.0445639,0,0,0.95733732,-2.0891278,0)" />
        <g
           id="text3967"
           style="font-size:9.76762295px;font-style:normal;font-variant:normal;font-weight:normal;font-stretch:normal;line-height:125%;letter-spacing:0px;word-spacing:0px;fill:#698094;fill-opacity:1;stroke:none;display:inline;font-family:FontAwesome;-inkscape-font-specification:FontAwesome"
           transform="matrix(1.0445639,0,0,0.95733732,-2.0891278,0)">
          <path
             id="path3030"
             style=""
             d="m 267.57499,411.69577 c 0,-0.13627 -0.0545,-0.27254 -0.15262,-0.37065 l -1.6025,-1.6025 1.6025,-1.6025 c 0.0981,-0.0981 0.15262,-0.23438 0.15262,-0.37065 0,-0.13626 -0.0545,-0.27253 -0.15262,-0.37064 l -0.7413,-0.7413 c -0.0981,-0.0981 -0.23438,-0.15262 -0.37064,-0.15262 -0.13627,0 -0.27254,0.0545 -0.37065,0.15262 l -1.6025,1.6025 -1.6025,-1.6025 c -0.0981,-0.0981 -0.23438,-0.15262 -0.37065,-0.15262 -0.13626,0 -0.27253,0.0545 -0.37064,0.15262 l -0.7413,0.7413 c -0.0981,0.0981 -0.15261,0.23438 -0.15261,0.37064 0,0.13627 0.0545,0.27254 0.15261,0.37065 l 1.6025,1.6025 -1.6025,1.6025 c -0.0981,0.0981 -0.15261,0.23438 -0.15261,0.37065 0,0.13626 0.0545,0.27253 0.15261,0.37064 l 0.7413,0.7413 c 0.0981,0.0981 0.23438,0.15262 0.37064,0.15262 0.13627,0 0.27254,-0.0545 0.37065,-0.15262 l 1.6025,-1.6025 1.6025,1.6025 c 0.0981,0.0981 0.23438,0.15262 0.37065,0.15262 0.13626,0 0.27253,-0.0545 0.37064,-0.15262 l 0.7413,-0.7413 c 0.0981,-0.0981 0.15262,-0.23438 0.15262,-0.37064" />
        </g>
        <g
           id="text3996"
           style="font-size:11.18568039px;font-style:normal;font-variant:normal;font-weight:normal;font-stretch:normal;line-height:125%;letter-spacing:0px;word-spacing:0px;fill:#cfd5dd;fill-opacity:1;stroke:none;display:inline;font-family:FontAwesome;-inkscape-font-specification:FontAwesome"
           transform="matrix(1.0445639,0,0,0.95733732,-2.0891278,0)">
          <path
             id="path3027"
             style=""
             d="m 297.53234,409.13606 c 0,-0.33082 -0.26841,-0.59923 -0.59923,-0.59923 l -2.59668,0 0,-2.59668 c 0,-0.33082 -0.26841,-0.59923 -0.59923,-0.59923 l -1.19847,0 c -0.33082,0 -0.59923,0.26841 -0.59923,0.59923 l 0,2.59668 -2.59668,0 c -0.33082,0 -0.59923,0.26841 -0.59923,0.59923 l 0,1.19847 c 0,0.33082 0.26841,0.59923 0.59923,0.59923 l 2.59668,0 0,2.59668 c 0,0.33082 0.26841,0.59923 0.59923,0.59923 l 1.19847,0 c 0.33082,0 0.59923,-0.26841 0.59923,-0.59923 l 0,-2.59668 2.59668,0 c 0.33082,0 0.59923,-0.26841 0.59923,-0.59923 l 0,-1.19847" />
        </g>
        <rect
           ry="1"
           y="426.86221"
           x="92.012543"
           height="22"
           width="297.73093"
           id="rect4212"
           style="opacity:1;fill:#ffffff;fill-opacity:1;stroke:none;display:inline"
           transform="matrix(1.0445639,0,0,0.95733732,-2.0891278,0)" />
        <path
           sodipodi:type="arc"
           style="fill:#cfd5dd;fill-opacity:1;stroke:none;display:inline"
           id="path4389"
           sodipodi:cx="-990.02704"
           sodipodi:cy="600.73035"
           sodipodi:rx="11.552512"
           sodipodi:ry="11.552512"
           d="m -978.47453,600.73035 a 11.552512,11.552512 0 0 1 -11.55251,11.55251 11.552512,11.552512 0 0 1 -11.55256,-11.55251 11.552512,11.552512 0 0 1 11.55256,-11.55252 11.552512,11.552512 0 0 1 11.55251,11.55252 z"
           transform="matrix(1.4014909,0,0,1.284459,1479.4864,-352.47816)" />
        <rect
           style="opacity:0.9;fill:#ffffff;fill-opacity:1;stroke:none;display:inline"
           id="rect4704"
           width="123"
           height="22"
           x="395.5"
           y="426.86221"
           ry="1"
           transform="matrix(1.0445639,0,0,0.95733732,-2.0891278,0)" />
        <path
           inkscape:connector-curvature="0"
           id="text4232"
           d="m 537.875,430.11594 c -0.20346,0 -0.35789,0.17568 -0.4375,0.34375 l -2,4.03125 -4.4375,0.65625 c -0.22115,0.0354 -0.5,0.14087 -0.5,0.40625 0,0.15923 0.1126,0.29125 0.21875,0.40625 l 3.21875,3.125 -0.75,4.4375 c -0.009,0.0619 -0.0312,0.12558 -0.0312,0.1875 0,0.22999 0.11847,0.4375 0.375,0.4375 0.12384,0 0.22875,-0.0631 0.34375,-0.125 l 4,-2.0625 3.96875,2.0625 c 0.10615,0.0619 0.21991,0.125 0.34375,0.125 0.25653,0 0.375,-0.19866 0.375,-0.4375 0,-0.0619 -0.0224,-0.12558 -0.0312,-0.1875 l -0.75,-4.4375 3.21875,-3.125 c 0.115,-0.115 0.21875,-0.24702 0.21875,-0.40625 0,-0.26538 -0.2877,-0.37087 -0.5,-0.40625 l -4.4375,-0.65625 -2,-4.03125 c -0.0796,-0.16807 -0.20279,-0.34375 -0.40625,-0.34375 z m 0,3.53125 1.1875,2.46875 2.71875,0.40625 -1.96875,1.90625 0.46875,2.71875 -2.40625,-1.28125 -2.4375,1.28125 0.46875,-2.71875 -1.96875,-1.90625 2.71875,-0.40625 1.21875,-2.46875 z m -5.40625,2.4375 0.0625,0 c -0.004,0.012 -0.0296,0.018 -0.0312,0.0312 l -0.0312,-0.0312 z m 10.71875,0 0.0625,0 -0.0312,0.0312 c -0.002,-0.0132 -0.0276,-0.0192 -0.0312,-0.0312 z m -8.625,6.25 c 0.0182,0.014 0.0395,0.0229 0.0625,0.0312 l -0.0937,0.0625 0.0312,-0.0937 z m 6.59375,0 0.0312,0.0937 -0.0937,-0.0625 c 0.0226,-0.008 0.0447,-0.0176 0.0625,-0.0312 z"
           style="font-size:15.85188866px;font-style:normal;font-variant:normal;font-weight:normal;font-stretch:normal;line-height:125%;letter-spacing:0px;word-spacing:0px;fill:#698094;fill-opacity:1;stroke:none;display:inline;font-family:FontAwesome;-inkscape-font-specification:FontAwesome"
           transform="matrix(1.0445639,0,0,0.95733732,-2.0891278,0)" />
        <g
           id="text4243"
           style="font-size:15.0037756px;font-style:normal;font-variant:normal;font-weight:normal;font-stretch:normal;line-height:125%;letter-spacing:0px;word-spacing:0px;fill:#698094;fill-opacity:1;stroke:none;display:inline;font-family:FontAwesome;-inkscape-font-specification:FontAwesome"
           transform="matrix(1.0445639,0,0,0.95733732,-2.0891278,0)">
          <path
             id="path3018"
             style=""
             d="m 663.36038,441.25467 c 0,-0.29305 -0.24281,-0.53585 -0.53585,-0.53585 l -11.78868,0 c -0.29304,0 -0.53585,0.2428 -0.53585,0.53585 l 0,1.07169 c 0,0.29305 0.24281,0.53585 0.53585,0.53585 l 11.78868,0 c 0.29304,0 0.53585,-0.2428 0.53585,-0.53585 l 0,-1.07169 m 0,-4.2868 c 0,-0.29304 -0.24281,-0.53585 -0.53585,-0.53585 l -11.78868,0 c -0.29304,0 -0.53585,0.24281 -0.53585,0.53585 l 0,1.0717 c 0,0.29304 0.24281,0.53585 0.53585,0.53585 l 11.78868,0 c 0.29304,0 0.53585,-0.24281 0.53585,-0.53585 l 0,-1.0717 m 0,-4.28679 c 0,-0.29304 -0.24281,-0.53585 -0.53585,-0.53585 l -11.78868,0 c -0.29304,0 -0.53585,0.24281 -0.53585,0.53585 l 0,1.0717 c 0,0.29304 0.24281,0.53585 0.53585,0.53585 l 11.78868,0 c 0.29304,0 0.53585,-0.24281 0.53585,-0.53585 l 0,-1.0717" />
        </g>
        <path
           style="fill:#698094;fill-opacity:1;stroke:#697394;stroke-width:1px;stroke-linecap:round;stroke-linejoin:miter;stroke-opacity:1;display:inline"
           d="m 556.25238,443.17612 0,-11.9839 0,0 0,0"
           id="path4252"
           inkscape:connector-curvature="0"
           transform="matrix(1.0445639,0,0,0.95733732,-2.0891278,0)" />
        <path
           inkscape:connector-curvature="0"
           id="path4250"
           d="m 635.67679,443.80156 0,-11.9839 0,0 0,0"
           style="fill:#698094;fill-opacity:1;stroke:#697394;stroke-width:1px;stroke-linecap:round;stroke-linejoin:miter;stroke-opacity:1;display:inline"
           transform="matrix(1.0445639,0,0,0.95733732,-2.0891278,0)" />
        <g
           id="text4270"
           style="font-size:12.39563942px;font-style:normal;font-variant:normal;font-weight:normal;font-stretch:normal;line-height:125%;letter-spacing:0px;word-spacing:0px;fill:#698094;fill-opacity:1;stroke:none;display:inline;font-family:FontAwesome;-inkscape-font-specification:FontAwesome"
           transform="matrix(1.0445639,0,0,0.95733732,-2.0891278,0)">
          <path
             id="path3021"
             style=""
             d="m 507.60394,436.51313 c 0,1.70855 -1.39036,3.09891 -3.09891,3.09891 -1.70855,0 -3.09891,-1.39036 -3.09891,-3.09891 0,-1.70855 1.39036,-3.09891 3.09891,-3.09891 1.70855,0 3.09891,1.39036 3.09891,3.09891 m 3.54161,5.75512 c 0,-0.23519 -0.0968,-0.46346 -0.25594,-0.62255 l -2.3726,-2.37261 c 0.5603,-0.80931 0.85774,-1.77772 0.85774,-2.75996 0,-2.69079 -2.17893,-4.86972 -4.86972,-4.86972 -2.69079,0 -4.86972,2.17893 -4.86972,4.86972 0,2.69079 2.17893,4.86971 4.86972,4.86971 0.98224,0 1.95065,-0.29744 2.75997,-0.85773 l 2.3726,2.36568 c 0.1591,0.16602 0.38736,0.26286 0.62255,0.26286 0.4842,0 0.8854,-0.4012 0.8854,-0.8854" />
        </g>
        <path
           transform="matrix(0.99460644,0,0,0.91155156,1076.6089,-128.41484)"
           d="m -978.47453,600.73035 a 11.552512,11.552512 0 0 1 -11.55251,11.55251 11.552512,11.552512 0 0 1 -11.55256,-11.55251 11.552512,11.552512 0 0 1 11.55256,-11.55252 11.552512,11.552512 0 0 1 11.55251,11.55252 z"
           sodipodi:ry="11.552512"
           sodipodi:rx="11.552512"
           sodipodi:cy="600.73035"
           sodipodi:cx="-990.02704"
           id="path4706"
           style="opacity:1;fill:#698094;fill-opacity:1;stroke:none;display:inline"
           sodipodi:type="arc" />
        <g
           id="text4274"
           style="font-size:13.84648132px;font-style:normal;font-variant:normal;font-weight:normal;font-stretch:normal;line-height:125%;letter-spacing:0px;word-spacing:0px;fill:#fafbfc;fill-opacity:1;stroke:none;display:inline;font-family:FontAwesome;-inkscape-font-specification:FontAwesome"
           transform="matrix(1.0445639,0,0,0.95733732,-2.0891278,0)">
          <path
             id="path3014"
             style=""
             d="m 96.267827,436.8911 c 0,-0.52542 -0.347708,-0.98903 -0.90404,-0.98903 l -5.439689,0 2.263962,-2.26396 c 0.185444,-0.18545 0.293619,-0.44043 0.293619,-0.70315 0,-0.26271 -0.108175,-0.51769 -0.293619,-0.70314 l -0.579513,-0.57178 c -0.185443,-0.18545 -0.432702,-0.29362 -0.695414,-0.29362 -0.262712,0 -0.517698,0.10817 -0.703142,0.29362 l -5.030167,5.02244 c -0.177717,0.18544 -0.285893,0.44043 -0.285893,0.70314 0,0.26271 0.108176,0.5177 0.285893,0.69541 l 5.030167,5.0379 c 0.185444,0.17771 0.44043,0.28589 0.703142,0.28589 0.262712,0 0.517698,-0.10818 0.695414,-0.28589 l 0.579513,-0.58724 c 0.185444,-0.17772 0.293619,-0.4327 0.293619,-0.69542 0,-0.26271 -0.108175,-0.51769 -0.293619,-0.69541 l -2.263962,-2.27169 5.439689,0 c 0.556332,0 0.90404,-0.46361 0.90404,-0.98903 l 0,-0.98904" />
        </g>
        <path
           inkscape:connector-curvature="0"
           d="m 624.64328,437.93034 -6.19605,-5.63444 c -0.36198,-0.32917 -0.94793,-0.32922 -1.30987,0 l -6.19605,5.63444 1.59467,0 5.19009,-4.50252 5.27971,4.50252 z m -6.87238,-3.544 -4.34304,3.8595 c 0,0.0187 -0.004,5.12661 -0.004,5.12661 0,0.32762 0.21885,0.59908 0.48296,0.59908 l 2.89773,0 0,-4.3015 1.93182,0 0,4.3015 2.89772,0 c 0.26412,0 0.48315,-0.27146 0.48296,-0.59908 l -0.003,-5.12661 c 4.6e-4,-0.0187 -4.34283,-3.8595 -4.34283,-3.8595 z"
           style="font-size:16.13401794px;font-style:normal;font-variant:normal;font-weight:normal;font-stretch:normal;line-height:125%;letter-spacing:0px;word-spacing:0px;fill:#698094;fill-opacity:1;stroke:none;display:inline;font-family:FontAwesome;-inkscape-font-specification:FontAwesome"
           id="path4395"
           transform="matrix(1.0445639,0,0,0.95733732,-2.0891278,0)" />
        <g
           id="text4286"
           style="font-size:25.79707146px;font-style:normal;font-variant:normal;font-weight:normal;font-stretch:normal;line-height:125%;letter-spacing:0px;word-spacing:0px;fill:#698094;fill-opacity:1;stroke:none;display:inline;font-family:FontAwesome;-inkscape-font-specification:FontAwesome"
           transform="matrix(1.0158804,0,0,0.84041175,1093.6367,-112.11767)">
          <path
             style="fill:#698094;fill-opacity:1"
             sodipodi:nodetypes="cscsssscscccccccc"
             inkscape:connector-curvature="0"
             id="path4291"
             d="m -461.27609,632.3829 c -0.072,-0.17275 -0.23033,-0.27352 -0.41747,-0.27352 l -2.77929,0 0,-5.7839 c 0,-0.25912 -0.20154,-0.46066 -0.46066,-0.46066 l -3.58044,0 c -0.25912,0 -0.46066,0.20155 -0.46066,0.46066 l 0,5.7839 -2.85352,0 c -0.18714,0 -0.34549,0.11517 -0.41747,0.27352 -0.072,0.17275 -0.0432,0.35989 0.072,0.50385 l 5.11047,5.52794 c 0.0864,0.0864 0.21593,0.14396 0.34549,0.14396 l 0,0 c 0.12956,0 0.24473,-0.0576 0.3311,-0.14396 l 5.03849,-5.52794 c 0.11517,-0.14396 0.14396,-0.3311 0.072,-0.50385" />
        </g>
        <path
           d="m 365.66635,435.53161 c 0,-0.30903 -0.25605,-0.56508 -0.56508,-0.56508 l -7.91119,0 c -0.30903,0 -0.56508,0.25605 -0.56508,0.56508 0,0.15011 0.0618,0.29138 0.16776,0.39733 l 3.95559,4.39309 c 0.10595,0.10596 0.24723,0.16776 0.39733,0.16776 0.1501,0 0.29137,-0.0618 0.39732,-0.16776 l 3.95559,-4.39309 c 0.10596,-0.10595 0.16776,-0.24722 0.16776,-0.39733"
           id="path4227"
           inkscape:connector-curvature="0"
           sodipodi:nodetypes="csssccsccc"
           style="font-size:15.82236767px;font-style:normal;font-variant:normal;font-weight:normal;font-stretch:normal;line-height:125%;letter-spacing:0px;word-spacing:0px;fill:#698094;fill-opacity:1;stroke:none;font-family:FontAwesome;-inkscape-font-specification:FontAwesome"
           transform="matrix(1.0445639,0,0,0.95733732,-2.0891278,0)" />
        <g
           id="text4254"
           style="font-size:11.05208397px;font-style:normal;font-variant:normal;font-weight:normal;font-stretch:normal;line-height:125%;letter-spacing:0px;word-spacing:0px;fill:#698094;fill-opacity:1;stroke:none;display:inline;font-family:FontAwesome;-inkscape-font-specification:FontAwesome"
           transform="matrix(1.0445639,0,0,0.95733732,-2.0891278,0)">
          <path
             id="path3024"
             style=""
             d="m 383.01258,434.45212 c 0,-0.16035 -0.0987,-0.30221 -0.24053,-0.36388 -0.14802,-0.0617 -0.32071,-0.0308 -0.43172,0.0863 l -0.80177,0.79561 c -0.86961,-0.82027 -2.0476,-1.3075 -3.26258,-1.3075 -2.60884,0 -4.73661,2.12777 -4.73661,4.7366 0,2.60884 2.12777,4.73661 4.73661,4.73661 1.41234,0 2.74451,-0.62291 3.64496,-1.70839 0.0617,-0.0802 0.0617,-0.19735 -0.0123,-0.2652 l -0.84494,-0.8511 c -0.0432,-0.037 -0.0987,-0.0555 -0.15419,-0.0555 -0.0555,0.006 -0.11101,0.0308 -0.14185,0.074 -0.60441,0.78326 -1.51103,1.22732 -2.49165,1.22732 -1.73923,0 -3.15774,-1.41852 -3.15774,-3.15774 0,-1.73922 1.41851,-3.15774 3.15774,-3.15774 0.80793,0 1.5727,0.30838 2.15244,0.84495 l -0.85111,0.85111 c -0.11718,0.11101 -0.14802,0.2837 -0.0864,0.42555 0.0617,0.14802 0.20353,0.2467 0.36388,0.2467 l 2.76303,0 c 0.21586,0 0.39471,-0.17886 0.39471,-0.39472 l 0,-2.76302" />
        </g>
        <path
           inkscape:connector-curvature="0"
           id="rect4440"
           d="m 573.19214,430.83469 -2.4375,2.4375 -1.5,0 c -1.10382,0 -1.96875,0.89619 -1.96875,2 l 0,6.375 c 0,1.10382 0.86493,2 1.96875,2 l 7.875,0 c 1.10381,0 2,-0.89618 2,-2 l 0,-6.375 c 0,-1.10381 -0.89619,-2 -2,-2 l -1.5,0 -2.4375,-2.4375 z m -3.5625,4.25 c 0.5257,0 0.9375,0.4118 0.9375,0.9375 0,0.5257 -0.4118,0.96875 -0.9375,0.96875 -0.5257,0 -0.96875,-0.44305 -0.96875,-0.96875 0,-0.5257 0.44305,-0.9375 0.96875,-0.9375 z m 1.71875,0.3125 6.03125,0 c 0.0843,0 0.15625,0.0719 0.15625,0.15625 l 0,0.96875 c 0,0.0843 -0.0719,0.15625 -0.15625,0.15625 l -6.03125,0 c -0.0843,0 -0.15625,-0.0719 -0.15625,-0.15625 l 0,-0.96875 c 0,-0.0843 0.0719,-0.15625 0.15625,-0.15625 z m -1.71875,2.21875 c 0.5257,0 0.9375,0.44305 0.9375,0.96875 0,0.5257 -0.4118,0.9375 -0.9375,0.9375 -0.5257,0 -0.96875,-0.4118 -0.96875,-0.9375 0,-0.5257 0.44305,-0.96875 0.96875,-0.96875 z m 1.71875,0.3125 6.03125,0 c 0.0843,0 0.15625,0.0719 0.15625,0.15625 l 0,0.96875 c 0,0.0843 -0.0719,0.15625 -0.15625,0.15625 l -6.03125,0 c -0.0843,0 -0.15625,-0.0719 -0.15625,-0.15625 l 0,-0.96875 c 0,-0.0843 0.0719,-0.15625 0.15625,-0.15625 z m -1.71875,2.21875 c 0.5257,0 0.9375,0.44305 0.9375,0.96875 0,0.5257 -0.4118,0.9375 -0.9375,0.9375 -0.5257,0 -0.96875,-0.4118 -0.96875,-0.9375 0,-0.5257 0.44305,-0.96875 0.96875,-0.96875 z m 1.71875,0.34375 6.03125,0 c 0.0843,0 0.15625,0.0719 0.15625,0.15625 l 0,0.9375 c 0,0.0843 -0.0719,0.15625 -0.15625,0.15625 l -6.03125,0 c -0.0843,0 -0.15625,-0.0719 -0.15625,-0.15625 l 0,-0.9375 c 0,-0.0843 0.0719,-0.15625 0.15625,-0.15625 z"
           style="fill:#698094;fill-opacity:1;stroke:none;display:inline"
           transform="matrix(1.0445639,0,0,0.95733732,-2.0891278,0)" />
        <text
           sodipodi:linespacing="125%"
           id="text4555"
           y="442.36218"
           x="111.04169"
           style="font-style:normal;font-variant:normal;font-weight:normal;font-stretch:normal;font-size:10px;line-height:125%;font-family:'Noto Sans CJK TC';-inkscape-font-specification:'Noto Sans CJK TC';text-align:start;letter-spacing:0px;word-spacing:0px;writing-mode:lr-tb;text-anchor:start;display:inline;fill:#000000;fill-opacity:1;stroke:none"
           xml:space="preserve"
           transform="matrix(1.0445639,0,0,0.95733732,-2.0891278,0)"><tspan
             y="442.36218"
             x="111.04169"
             id="tspan4557"
             sodipodi:role="line">example.com</tspan></text>
        <rect
           ry="0"
           rx="0"
           y="461.38986"
           x="75.869339"
           height="206.33589"
           width="596.76324"
           id="rect19642"
           style="opacity:1;fill:#ffffff;fill-opacity:1;stroke:none;stroke-width:2;stroke-linecap:round;stroke-linejoin:round;stroke-miterlimit:4;stroke-dasharray:none;stroke-opacity:1"
           transform="matrix(1.0445639,0,0,0.95733732,-2.0891278,0)" />
        <g
           transform="translate(2.0891278,1.9146746)"
           style="font-style:normal;font-weight:normal;font-size:44.03507233px;line-height:125%;font-family:sans-serif;letter-spacing:0px;word-spacing:0px;fill:#ececec;fill-opacity:1;stroke:none;stroke-width:1px;stroke-linecap:butt;stroke-linejoin:miter;stroke-opacity:1"
           id="g19703">
          <path
             inkscape:connector-curvature="0"
             d="m 176.91926,522.07815 -9.82081,0 -3.87027,16.7873 -17.75487,0 3.87027,-16.7873 -34.88081,0 3.1446,-13.6427 43.34703,-41.79892 18.91594,0 -9.72405,42.2827 9.82081,0 -3.04784,13.15892 z m -24.52784,-13.15892 5.90216,-25.54378 -26.36621,25.54378 20.46405,0 z"
             style="font-style:italic;font-variant:normal;font-weight:bold;font-stretch:normal;font-size:99.07891846px;font-family:sans-serif;-inkscape-font-specification:'sans-serif Bold Italic';fill:#ececec"
             id="path19705" />
          <path
             inkscape:connector-curvature="0"
             d="m 251.61548,488.79383 q 0,9.96594 -2.32217,19.49648 -2.32216,9.48217 -6.82135,16.40027 -5.1281,7.74055 -11.99783,11.61082 -6.82136,3.87027 -15.57784,3.87027 -12.62676,0 -19.35135,-5.70865 -6.7246,-5.75703 -6.7246,-17.9 0,-10.35298 2.27379,-19.49649 2.27378,-9.19189 6.86973,-16.40027 4.59594,-7.16 11.61081,-11.32054 7.06324,-4.16054 16.11,-4.16054 12.91702,0 19.39973,5.95054 6.53108,5.90216 6.53108,17.65811 z m -18.67406,0.72567 q 0,-5.66027 -2.08027,-8.36946 -2.03189,-2.70918 -6.09567,-2.70918 -3.8219,0 -7.20838,3.43486 -3.33811,3.43486 -5.75703,9.82081 -2.12865,5.56351 -3.24135,12.19135 -1.06432,6.57946 -1.06432,11.94946 0,5.70865 2.03189,8.41784 2.03189,2.66081 6.38594,2.66081 4.16054,0 7.35352,-3.72513 3.19297,-3.77352 5.37,-9.53055 2.03189,-5.37 3.14459,-11.8527 1.16108,-6.4827 1.16108,-12.28811 z"
             style="font-style:italic;font-variant:normal;font-weight:bold;font-stretch:normal;font-size:99.07891846px;font-family:sans-serif;-inkscape-font-specification:'sans-serif Bold Italic';fill:#ececec"
             id="path19707" />
          <path
             inkscape:connector-curvature="0"
             d="m 317.7971,522.07815 -9.82081,0 -3.87027,16.7873 -17.75487,0 3.87027,-16.7873 -34.88081,0 3.1446,-13.6427 43.34702,-41.79892 18.91595,0 -9.72405,42.2827 9.82081,0 -3.04784,13.15892 z m -24.52784,-13.15892 5.90216,-25.54378 -26.36621,25.54378 20.46405,0 z"
             style="font-style:italic;font-variant:normal;font-weight:bold;font-stretch:normal;font-size:99.07891846px;font-family:sans-serif;-inkscape-font-specification:'sans-serif Bold Italic';fill:#ececec"
             id="path19709" />
          <path
             inkscape:connector-curvature="0"
             d="m 147.29557,570.20709 -11.53018,24.0118 -3.69289,0 -0.70955,-19.88351 -9.3209,19.88351 -3.54774,0 -0.9837,-24.0118 3.24135,0 0.64505,19.93189 9.40153,-19.93189 3.24135,0 0.64505,20.12541 9.46603,-20.12541 3.1446,0 z"
             style="font-style:italic;font-variant:normal;font-weight:normal;font-stretch:normal;font-size:33.02630615px;font-family:sans-serif;-inkscape-font-specification:'sans-serif Italic';fill:#ececec"
             id="path19711" />
          <path
             inkscape:connector-curvature="0"
             d="m 161.00278,583.25313 q 0.0806,-0.46766 0.11288,-0.79018 0.0323,-0.32253 0.0323,-0.70955 0,-1.7255 -0.95144,-2.69307 -0.93532,-0.96756 -3.01559,-0.96756 -2.28991,0 -4.06378,1.4191 -1.77387,1.41909 -2.40279,3.74126 l 10.28847,0 z m -6.06343,11.38504 q -3.74126,0 -5.86991,-1.75775 -2.12865,-1.75774 -2.12865,-5.14423 0,-4.95072 3.12847,-8.48234 3.12847,-3.54775 7.74054,-3.54775 3.06397,0 4.6927,1.53198 1.62874,1.51586 1.62874,4.27342 0,0.48379 -0.14513,1.53199 -0.12901,1.0482 -0.43541,2.43504 l -13.2718,0 q -0.0968,0.46766 -0.14513,0.91919 -0.0323,0.45153 -0.0323,0.83856 0,2.27378 1.38685,3.58 1.38685,1.29009 3.93478,1.29009 1.77387,0 3.6445,-0.69342 1.88676,-0.69343 3.16072,-1.56424 l 0.17739,0 -0.66117,3.27361 q -0.80631,0.29027 -1.45135,0.53216 -0.64505,0.24189 -1.64487,0.48378 -0.99982,0.24189 -1.77387,0.3709 -0.77406,0.12901 -1.93514,0.12901 z"
             style="font-style:italic;font-variant:normal;font-weight:normal;font-stretch:normal;font-size:33.02630615px;font-family:sans-serif;-inkscape-font-specification:'sans-serif Italic';fill:#ececec"
             id="path19713" />
          <path
             inkscape:connector-curvature="0"
             d="m 184.40178,581.89853 q 0,2.62856 -0.82243,5.01523 -0.82243,2.38666 -2.19315,4.07991 -1.43523,1.77387 -3.2091,2.75756 -1.77387,0.96757 -3.91865,0.96757 -1.43522,0 -2.69306,-0.38702 -1.24171,-0.37091 -2.22541,-0.99982 l -0.40315,0.88693 -2.8382,0 5.78928,-25.09225 3.03171,0 -2.06414,8.96613 q 1.49973,-1.0482 2.93495,-1.70937 1.43523,-0.6773 3.19298,-0.6773 2.62855,0 4.0154,1.62874 1.40297,1.62874 1.40297,4.56369 z m -4.98297,7.24063 q 0.90306,-1.40297 1.3546,-3.08009 0.45153,-1.67711 0.45153,-3.58 0,-1.91901 -0.83856,-2.95108 -0.83856,-1.0482 -2.67694,-1.0482 -1.33847,0 -2.77369,0.66117 -1.43523,0.66118 -2.67694,1.49973 l -2.37054,10.3046 q 1.03207,0.54829 1.99964,0.85468 0.98369,0.3064 2.33829,0.3064 1.67712,0 2.99946,-0.82243 1.32234,-0.82244 2.19315,-2.14478 z"
             style="font-style:italic;font-variant:normal;font-weight:normal;font-stretch:normal;font-size:33.02630615px;font-family:sans-serif;-inkscape-font-specification:'sans-serif Italic';fill:#ececec"
             id="path19715" />
          <path
             inkscape:connector-curvature="0"
             d="m 192.30359,594.6543 q -2.01577,0 -3.61225,-0.49991 -1.58036,-0.49991 -2.64469,-1.08045 l 0.6773,-3.24135 0.16126,0 q 0.33865,0.29027 0.87081,0.69342 0.54829,0.38703 1.38685,0.77405 0.75792,0.3709 1.72549,0.64505 0.9837,0.25802 2.0964,0.25802 2.27378,0 3.56387,-0.83856 1.29009,-0.83856 1.29009,-2.4673 0,-0.85468 -0.66117,-1.30622 -0.66117,-0.46765 -1.90288,-0.75792 -0.62892,-0.14514 -1.51586,-0.32253 -0.87081,-0.17738 -1.77387,-0.41928 -1.88676,-0.53216 -2.78982,-1.53198 -0.90306,-1.01594 -0.90306,-2.46729 0,-1.25784 0.54828,-2.35442 0.54829,-1.09658 1.62874,-2.01576 1.03208,-0.87082 2.62856,-1.40298 1.59649,-0.54829 3.54775,-0.54829 1.61261,0 3.2091,0.40316 1.61261,0.40315 2.62856,0.99982 l -0.64505,3.09621 -0.16126,0 q -0.25802,-0.20964 -0.79018,-0.56441 -0.51604,-0.35478 -1.32234,-0.72568 -0.69343,-0.30639 -1.62874,-0.53216 -0.91919,-0.22576 -1.91901,-0.22576 -2.01577,0 -3.2736,0.85468 -1.25784,0.83856 -1.25784,2.30604 0,0.8063 0.61279,1.35459 0.61279,0.53216 1.87063,0.83856 0.79018,0.19351 1.64487,0.3709 0.87081,0.16126 1.67711,0.35477 1.87064,0.46766 2.80595,1.45136 0.95144,0.98369 0.95144,2.46729 0,1.24172 -0.59666,2.43505 -0.58055,1.17721 -1.69325,2.04802 -1.14495,0.91919 -2.77369,1.43522 -1.62874,0.51604 -3.66063,0.51604 z"
             style="font-style:italic;font-variant:normal;font-weight:normal;font-stretch:normal;font-size:33.02630615px;font-family:sans-serif;-inkscape-font-specification:'sans-serif Italic';fill:#ececec"
             id="path19717" />
          <path
             inkscape:connector-curvature="0"
             d="m 212.73539,570.04583 -0.72568,3.14459 -3.41874,0 0.72568,-3.14459 3.41874,0 z m -1.61261,6.16018 -4.16054,18.01288 -3.03172,0 4.16054,-18.01288 3.03172,0 z"
             style="font-style:italic;font-variant:normal;font-weight:normal;font-stretch:normal;font-size:33.02630615px;font-family:sans-serif;-inkscape-font-specification:'sans-serif Italic';fill:#ececec"
             id="path19719" />
          <path
             inkscape:connector-curvature="0"
             d="m 226.5071,576.20601 -0.54829,2.45117 -6.25694,0 -1.93513,8.30496 q -0.16127,0.62891 -0.29027,1.45135 -0.12901,0.8063 -0.12901,1.29009 0,1.1772 0.59666,1.75774 0.59667,0.56442 2.20928,0.56442 0.66117,0 1.56424,-0.22577 0.91919,-0.22576 1.24171,-0.35477 l 0.16126,0 -0.56441,2.61243 q -0.90307,0.22577 -1.93514,0.3709 -1.01595,0.14514 -1.80613,0.14514 -2.2254,0 -3.45099,-0.96757 -1.20946,-0.98369 -1.20946,-3.09622 0,-0.51603 0.0645,-1.01594 0.0806,-0.51604 0.20964,-1.16108 l 2.24153,-9.67568 -2.04802,0 0.54829,-2.45117 2.04802,0 1.20946,-5.17649 3.03171,0 -1.20946,5.17649 6.25694,0 z"
             style="font-style:italic;font-variant:normal;font-weight:normal;font-stretch:normal;font-size:33.02630615px;font-family:sans-serif;-inkscape-font-specification:'sans-serif Italic';fill:#ececec"
             id="path19721" />
          <path
             inkscape:connector-curvature="0"
             d="m 240.60134,583.25313 q 0.0806,-0.46766 0.11288,-0.79018 0.0322,-0.32253 0.0322,-0.70955 0,-1.7255 -0.95144,-2.69307 -0.93532,-0.96756 -3.01559,-0.96756 -2.28991,0 -4.06378,1.4191 -1.77387,1.41909 -2.40279,3.74126 l 10.28847,0 z m -6.06343,11.38504 q -3.74126,0 -5.86991,-1.75775 -2.12865,-1.75774 -2.12865,-5.14423 0,-4.95072 3.12847,-8.48234 3.12847,-3.54775 7.74054,-3.54775 3.06397,0 4.69271,1.53198 1.62873,1.51586 1.62873,4.27342 0,0.48379 -0.14513,1.53199 -0.12901,1.0482 -0.43541,2.43504 l -13.2718,0 q -0.0968,0.46766 -0.14513,0.91919 -0.0323,0.45153 -0.0323,0.83856 0,2.27378 1.38685,3.58 1.38685,1.29009 3.93478,1.29009 1.77387,0 3.6445,-0.69342 1.88676,-0.69343 3.16072,-1.56424 l 0.17739,0 -0.66117,3.27361 q -0.80631,0.29027 -1.45135,0.53216 -0.64505,0.24189 -1.64487,0.48378 -0.99982,0.24189 -1.77387,0.3709 -0.77406,0.12901 -1.93514,0.12901 z"
             style="font-style:italic;font-variant:normal;font-weight:normal;font-stretch:normal;font-size:33.02630615px;font-family:sans-serif;-inkscape-font-specification:'sans-serif Italic';fill:#ececec"
             id="path19723" />
          <path
             inkscape:connector-curvature="0"
             d="m 270.49916,584.7206 q -2.48342,0.0968 -4.41855,0.38703 -1.91901,0.27415 -3.17685,0.80631 -1.30622,0.53216 -1.98351,1.45135 -0.6773,0.90306 -0.6773,2.25766 0,1.16108 0.79018,1.77387 0.79018,0.61279 2.45117,0.61279 1.46748,0 2.98333,-0.64504 1.53198,-0.66117 2.85433,-1.58036 l 1.1772,-5.06361 z m -1.75774,7.57928 q -0.43541,0.25802 -1.19334,0.74181 -0.7418,0.46765 -1.51585,0.8063 -0.82244,0.3709 -1.83838,0.61279 -1.01595,0.25802 -2.33829,0.25802 -2.14477,0 -3.48324,-1.24171 -1.33847,-1.25784 -1.33847,-3.2736 0,-2.14478 0.93531,-3.61226 0.95145,-1.4836 2.80595,-2.41891 1.82225,-0.91919 4.38631,-1.32235 2.58018,-0.41928 5.86991,-0.51603 0.0967,-0.45153 0.16126,-0.77406 0.0645,-0.33865 0.0645,-0.69342 0,-0.77405 -0.30639,-1.25784 -0.3064,-0.48378 -0.87081,-0.77405 -0.56442,-0.29027 -1.32235,-0.38703 -0.7418,-0.11288 -1.64486,-0.11288 -1.37072,0 -3.12847,0.45153 -1.75775,0.43541 -2.85432,0.87081 l -0.16127,0 0.59667,-3.03171 q 0.91919,-0.24189 2.69306,-0.54829 1.77388,-0.3064 3.40262,-0.3064 3.35423,0 5.03135,1.0482 1.67711,1.0482 1.67711,3.32198 0,0.43541 -0.0806,0.93532 -0.0645,0.48378 -0.16126,0.91919 l -2.82207,12.2236 -3.01558,0 0.45153,-1.91901 z"
             style="font-style:italic;font-variant:normal;font-weight:normal;font-stretch:normal;font-size:33.02630615px;font-family:sans-serif;-inkscape-font-specification:'sans-serif Italic';fill:#ececec"
             id="path19725" />
          <path
             inkscape:connector-curvature="0"
             d="m 297.59107,569.12664 -5.80541,25.09225 -3.03171,0 0.43541,-1.88675 q -2.04802,1.40297 -3.30586,1.88675 -1.24171,0.49991 -2.70919,0.49991 -2.54792,0 -4.04765,-1.61261 -1.48361,-1.61261 -1.48361,-4.6927 0,-2.59631 0.80631,-4.90235 0.8063,-2.32216 2.19315,-4.06378 1.37072,-1.72549 3.24135,-2.72531 1.87063,-1.01595 3.96703,-1.01595 1.43522,0 2.64468,0.3064 1.20946,0.30639 2.25766,0.91919 l 1.80613,-7.80505 3.03171,0 z m -5.41838,10.32072 q -1.08045,-0.56441 -2.12865,-0.82243 -1.03207,-0.27415 -2.20928,-0.27415 -1.67711,0 -2.99946,0.80631 -1.30621,0.80631 -2.24153,2.20928 -0.85468,1.27396 -1.32234,3.06396 -0.45153,1.79 -0.45153,3.46712 0,1.96739 0.83856,3.01559 0.85468,1.03207 2.75756,1.03207 1.3546,0 2.75757,-0.6773 1.4191,-0.6773 2.61243,-1.4836 l 2.38667,-10.33685 z"
             style="font-style:italic;font-variant:normal;font-weight:normal;font-stretch:normal;font-size:33.02630615px;font-family:sans-serif;-inkscape-font-specification:'sans-serif Italic';fill:#ececec"
             id="path19727" />
          <path
             inkscape:connector-curvature="0"
             d="m 318.168,569.12664 -5.8054,25.09225 -3.03171,0 0.4354,-1.88675 q -2.04801,1.40297 -3.30585,1.88675 -1.24171,0.49991 -2.70919,0.49991 -2.54793,0 -4.04766,-1.61261 -1.4836,-1.61261 -1.4836,-4.6927 0,-2.59631 0.8063,-4.90235 0.80631,-2.32216 2.19316,-4.06378 1.37072,-1.72549 3.24135,-2.72531 1.87063,-1.01595 3.96702,-1.01595 1.43523,0 2.64469,0.3064 1.20946,0.30639 2.25766,0.91919 l 1.80612,-7.80505 3.03171,0 z m -5.41837,10.32072 q -1.08045,-0.56441 -2.12865,-0.82243 -1.03207,-0.27415 -2.20928,-0.27415 -1.67712,0 -2.99946,0.80631 -1.30622,0.80631 -2.24153,2.20928 -0.85469,1.27396 -1.32234,3.06396 -0.45154,1.79 -0.45154,3.46712 0,1.96739 0.83856,3.01559 0.85469,1.03207 2.75757,1.03207 1.35459,0 2.75757,-0.6773 1.4191,-0.6773 2.61243,-1.4836 l 2.38667,-10.33685 z"
             style="font-style:italic;font-variant:normal;font-weight:normal;font-stretch:normal;font-size:33.02630615px;font-family:sans-serif;-inkscape-font-specification:'sans-serif Italic';fill:#ececec"
             id="path19729" />
          <path
             inkscape:connector-curvature="0"
             d="m 332.87503,579.39898 -0.16126,0 q -0.64505,-0.16126 -1.20946,-0.22576 -0.54829,-0.0806 -1.33847,-0.0806 -1.51586,0 -3.01559,0.69342 -1.4836,0.6773 -2.85432,1.64486 l -2.9027,12.78802 -3.06397,0 4.11217,-18.01288 3.06396,0 -0.61279,2.66081 q 2.14477,-1.49973 3.62838,-2.08027 1.49973,-0.58054 2.87045,-0.58054 0.79018,0 1.14495,0.0484 0.35478,0.0323 1.03207,0.14513 l -0.69342,2.99946 z"
             style="font-style:italic;font-variant:normal;font-weight:normal;font-stretch:normal;font-size:33.02630615px;font-family:sans-serif;-inkscape-font-specification:'sans-serif Italic';fill:#ececec"
             id="path19731" />
          <path
             inkscape:connector-curvature="0"
             d="m 347.03376,583.25313 q 0.0806,-0.46766 0.11288,-0.79018 0.0323,-0.32253 0.0323,-0.70955 0,-1.7255 -0.95144,-2.69307 -0.93532,-0.96756 -3.01559,-0.96756 -2.28991,0 -4.06378,1.4191 -1.77388,1.41909 -2.4028,3.74126 l 10.28847,0 z m -6.06342,11.38504 q -3.74126,0 -5.86991,-1.75775 -2.12865,-1.75774 -2.12865,-5.14423 0,-4.95072 3.12847,-8.48234 3.12847,-3.54775 7.74054,-3.54775 3.06396,0 4.6927,1.53198 1.62874,1.51586 1.62874,4.27342 0,0.48379 -0.14513,1.53199 -0.12901,1.0482 -0.43541,2.43504 l -13.2718,0 q -0.0968,0.46766 -0.14514,0.91919 -0.0323,0.45153 -0.0323,0.83856 0,2.27378 1.38685,3.58 1.38684,1.29009 3.93477,1.29009 1.77388,0 3.64451,-0.69342 1.88675,-0.69343 3.16072,-1.56424 l 0.17738,0 -0.66117,3.27361 q -0.8063,0.29027 -1.45135,0.53216 -0.64504,0.24189 -1.64486,0.48378 -0.99982,0.24189 -1.77388,0.3709 -0.77405,0.12901 -1.93513,0.12901 z"
             style="font-style:italic;font-variant:normal;font-weight:normal;font-stretch:normal;font-size:33.02630615px;font-family:sans-serif;-inkscape-font-specification:'sans-serif Italic';fill:#ececec"
             id="path19733" />
          <path
             inkscape:connector-curvature="0"
             d="m 357.75764,594.6543 q -2.01577,0 -3.61226,-0.49991 -1.58036,-0.49991 -2.64468,-1.08045 l 0.6773,-3.24135 0.16126,0 q 0.33865,0.29027 0.87081,0.69342 0.54829,0.38703 1.38685,0.77405 0.75792,0.3709 1.72549,0.64505 0.98369,0.25802 2.0964,0.25802 2.27378,0 3.56387,-0.83856 1.29009,-0.83856 1.29009,-2.4673 0,-0.85468 -0.66117,-1.30622 -0.66117,-0.46765 -1.90288,-0.75792 -0.62892,-0.14514 -1.51586,-0.32253 -0.87081,-0.17738 -1.77387,-0.41928 -1.88676,-0.53216 -2.78982,-1.53198 -0.90307,-1.01594 -0.90307,-2.46729 0,-1.25784 0.54829,-2.35442 0.54829,-1.09658 1.62874,-2.01576 1.03207,-0.87082 2.62856,-1.40298 1.59649,-0.54829 3.54775,-0.54829 1.61261,0 3.2091,0.40316 1.61261,0.40315 2.62856,0.99982 l -0.64505,3.09621 -0.16126,0 q -0.25802,-0.20964 -0.79018,-0.56441 -0.51604,-0.35478 -1.32234,-0.72568 -0.69343,-0.30639 -1.62874,-0.53216 -0.91919,-0.22576 -1.91901,-0.22576 -2.01577,0 -3.2736,0.85468 -1.25784,0.83856 -1.25784,2.30604 0,0.8063 0.61279,1.35459 0.61279,0.53216 1.87063,0.83856 0.79018,0.19351 1.64487,0.3709 0.87081,0.16126 1.67711,0.35477 1.87063,0.46766 2.80595,1.45136 0.95144,0.98369 0.95144,2.46729 0,1.24172 -0.59667,2.43505 -0.58054,1.17721 -1.69324,2.04802 -1.14495,0.91919 -2.77369,1.43522 -1.62874,0.51604 -3.66063,0.51604 z"
             style="font-style:italic;font-variant:normal;font-weight:normal;font-stretch:normal;font-size:33.02630615px;font-family:sans-serif;-inkscape-font-specification:'sans-serif Italic';fill:#ececec"
             id="path19735" />
          <path
             inkscape:connector-curvature="0"
             d="m 374.98034,594.6543 q -2.01577,0 -3.61225,-0.49991 -1.58036,-0.49991 -2.64469,-1.08045 l 0.6773,-3.24135 0.16126,0 q 0.33865,0.29027 0.87081,0.69342 0.54829,0.38703 1.38685,0.77405 0.75793,0.3709 1.72549,0.64505 0.9837,0.25802 2.0964,0.25802 2.27378,0 3.56387,-0.83856 1.29009,-0.83856 1.29009,-2.4673 0,-0.85468 -0.66117,-1.30622 -0.66117,-0.46765 -1.90288,-0.75792 -0.62892,-0.14514 -1.51586,-0.32253 -0.87081,-0.17738 -1.77387,-0.41928 -1.88676,-0.53216 -2.78982,-1.53198 -0.90306,-1.01594 -0.90306,-2.46729 0,-1.25784 0.54828,-2.35442 0.54829,-1.09658 1.62874,-2.01576 1.03208,-0.87082 2.62856,-1.40298 1.59649,-0.54829 3.54775,-0.54829 1.61261,0 3.2091,0.40316 1.61261,0.40315 2.62856,0.99982 l -0.64505,3.09621 -0.16126,0 q -0.25802,-0.20964 -0.79018,-0.56441 -0.51604,-0.35478 -1.32234,-0.72568 -0.69342,-0.30639 -1.62874,-0.53216 -0.91919,-0.22576 -1.91901,-0.22576 -2.01576,0 -3.2736,0.85468 -1.25784,0.83856 -1.25784,2.30604 0,0.8063 0.61279,1.35459 0.61279,0.53216 1.87063,0.83856 0.79018,0.19351 1.64487,0.3709 0.87081,0.16126 1.67711,0.35477 1.87064,0.46766 2.80595,1.45136 0.95144,0.98369 0.95144,2.46729 0,1.24172 -0.59666,2.43505 -0.58055,1.17721 -1.69325,2.04802 -1.14495,0.91919 -2.77369,1.43522 -1.62874,0.51604 -3.66063,0.51604 z"
             style="font-style:italic;font-variant:normal;font-weight:normal;font-stretch:normal;font-size:33.02630615px;font-family:sans-serif;-inkscape-font-specification:'sans-serif Italic';fill:#ececec"
             id="path19737" />
          <path
             inkscape:connector-curvature="0"
             d="m 416.23098,580.31817 q 0,0.38703 -0.0806,1.0482 -0.0645,0.66117 -0.19351,1.16108 l -2.70919,11.69144 -3.03171,0 2.37054,-10.25621 q 0.19351,-0.85469 0.29027,-1.48361 0.11288,-0.64504 0.11288,-1.27396 0,-1.3546 -0.6773,-2.03189 -0.66117,-0.69343 -2.40279,-0.69343 -1.22559,0 -2.70919,0.6773 -1.46748,0.6773 -2.87045,1.61261 l -3.11234,13.44919 -3.03171,0 4.16054,-18.01288 3.03171,0 -0.46766,1.99964 q 1.7255,-1.20946 3.22523,-1.85451 1.51585,-0.64504 3.11234,-0.64504 2.35441,0 3.66063,1.19333 1.32234,1.17721 1.32234,3.41874 z"
             style="font-style:italic;font-variant:normal;font-weight:normal;font-stretch:normal;font-size:33.02630615px;font-family:sans-serif;-inkscape-font-specification:'sans-serif Italic';fill:#ececec"
             id="path19739" />
          <path
             inkscape:connector-curvature="0"
             d="m 436.79178,582.57583 q 0,2.41892 -0.7418,4.64432 -0.74181,2.22541 -2.0964,3.87027 -1.40297,1.70937 -3.24135,2.67694 -1.83838,0.95144 -4.28955,0.95144 -3.2091,0 -5.01523,-1.82225 -1.79,-1.83838 -1.79,-5.0636 0,-2.41892 0.72568,-4.61208 0.7418,-2.19315 2.12865,-3.90252 1.33847,-1.64486 3.2736,-2.62856 1.95126,-0.98369 4.2573,-0.98369 3.11234,0 4.95072,1.77387 1.83838,1.77388 1.83838,5.09586 z m -4.9346,6.80522 q 0.87081,-1.29009 1.32235,-2.98333 0.46765,-1.69324 0.46765,-3.58 0,-2.25766 -1.08045,-3.41874 -1.08045,-1.16108 -3.04784,-1.16108 -1.56423,0 -2.80594,0.75793 -1.24171,0.7418 -2.14478,2.04802 -0.87081,1.27396 -1.33846,2.98333 -0.46766,1.70937 -0.46766,3.54775 0,2.2254 1.08045,3.41874 1.08045,1.19333 3.06396,1.19333 1.54811,0 2.80595,-0.7418 1.25784,-0.7418 2.14477,-2.06415 z"
             style="font-style:italic;font-variant:normal;font-weight:normal;font-stretch:normal;font-size:33.02630615px;font-family:sans-serif;-inkscape-font-specification:'sans-serif Italic';fill:#ececec"
             id="path19741" />
          <path
             inkscape:connector-curvature="0"
             d="m 452.6599,576.20601 -0.54829,2.45117 -6.25694,0 -1.93513,8.30496 q -0.16126,0.62891 -0.29027,1.45135 -0.12901,0.8063 -0.12901,1.29009 0,1.1772 0.59666,1.75774 0.59667,0.56442 2.20928,0.56442 0.66118,0 1.56424,-0.22577 0.91919,-0.22576 1.24171,-0.35477 l 0.16126,0 -0.56441,2.61243 q -0.90307,0.22577 -1.93514,0.3709 -1.01594,0.14514 -1.80612,0.14514 -2.22541,0 -3.451,-0.96757 -1.20945,-0.98369 -1.20945,-3.09622 0,-0.51603 0.0645,-1.01594 0.0806,-0.51604 0.20964,-1.16108 l 2.24153,-9.67568 -2.04802,0 0.54829,-2.45117 2.04802,0 1.20946,-5.17649 3.03171,0 -1.20946,5.17649 6.25694,0 z"
             style="font-style:italic;font-variant:normal;font-weight:normal;font-stretch:normal;font-size:33.02630615px;font-family:sans-serif;-inkscape-font-specification:'sans-serif Italic';fill:#ececec"
             id="path19743" />
          <path
             inkscape:connector-curvature="0"
             d="m 478.44557,571.94871 -0.16126,0 q -0.46766,-0.16126 -1.24171,-0.30639 -0.77406,-0.14514 -1.38685,-0.14514 -1.98351,0 -2.98333,0.99982 -0.9837,0.99982 -1.48361,3.09622 l -0.14513,0.61279 5.46675,0 -0.58054,2.41892 -5.37,0 -3.51549,15.59396 -3.06397,0 3.5155,-15.59396 -2.04802,0 0.58054,-2.41892 2.04802,0 0.12901,-0.59667 q 0.66117,-3.16072 2.58018,-4.90234 1.93513,-1.74162 4.96685,-1.74162 1.01594,0 1.83837,0.0968 0.82244,0.0968 1.48361,0.22576 l -0.62892,2.66081 z"
             style="font-style:italic;font-variant:normal;font-weight:normal;font-stretch:normal;font-size:33.02630615px;font-family:sans-serif;-inkscape-font-specification:'sans-serif Italic';fill:#ececec"
             id="path19745" />
          <path
             inkscape:connector-curvature="0"
             d="m 493.10422,582.57583 q 0,2.41892 -0.74181,4.64432 -0.7418,2.22541 -2.09639,3.87027 -1.40297,1.70937 -3.24135,2.67694 -1.83838,0.95144 -4.28955,0.95144 -3.2091,0 -5.01523,-1.82225 -1.79,-1.83838 -1.79,-5.0636 0,-2.41892 0.72568,-4.61208 0.7418,-2.19315 2.12865,-3.90252 1.33847,-1.64486 3.2736,-2.62856 1.95126,-0.98369 4.2573,-0.98369 3.11234,0 4.95072,1.77387 1.83838,1.77388 1.83838,5.09586 z m -4.9346,6.80522 q 0.87081,-1.29009 1.32234,-2.98333 0.46766,-1.69324 0.46766,-3.58 0,-2.25766 -1.08045,-3.41874 -1.08045,-1.16108 -3.04784,-1.16108 -1.56423,0 -2.80594,0.75793 -1.24171,0.7418 -2.14478,2.04802 -0.87081,1.27396 -1.33847,2.98333 -0.46765,1.70937 -0.46765,3.54775 0,2.2254 1.08045,3.41874 1.08045,1.19333 3.06396,1.19333 1.54811,0 2.80595,-0.7418 1.25784,-0.7418 2.14477,-2.06415 z"
             style="font-style:italic;font-variant:normal;font-weight:normal;font-stretch:normal;font-size:33.02630615px;font-family:sans-serif;-inkscape-font-specification:'sans-serif Italic';fill:#ececec"
             id="path19747" />
          <path
             inkscape:connector-curvature="0"
             d="m 514.55198,576.20601 -4.16054,18.01288 -3.03172,0 0.46766,-1.99964 q -1.72549,1.17721 -3.22522,1.83838 -1.48361,0.66117 -3.1446,0.66117 -2.32216,0 -3.62838,-1.16108 -1.30621,-1.17721 -1.30621,-3.41874 0,-0.54829 0.0645,-1.06432 0.0806,-0.51604 0.20964,-1.17721 l 2.69306,-11.69144 3.03172,0 -2.37054,10.25622 q -0.14514,0.62891 -0.27415,1.43522 -0.12901,0.80631 -0.12901,1.27396 0,1.38685 0.69343,2.08028 0.70955,0.69342 2.40279,0.69342 1.19333,0 2.72531,-0.69342 1.54811,-0.69343 2.85433,-1.59649 l 3.09621,-13.44919 3.03172,0 z"
             style="font-style:italic;font-variant:normal;font-weight:normal;font-stretch:normal;font-size:33.02630615px;font-family:sans-serif;-inkscape-font-specification:'sans-serif Italic';fill:#ececec"
             id="path19749" />
          <path
             inkscape:connector-curvature="0"
             d="m 534.40322,580.31817 q 0,0.38703 -0.0806,1.0482 -0.0645,0.66117 -0.19351,1.16108 l -2.70919,11.69144 -3.03171,0 2.37054,-10.25621 q 0.19351,-0.85469 0.29027,-1.48361 0.11288,-0.64504 0.11288,-1.27396 0,-1.3546 -0.6773,-2.03189 -0.66117,-0.69343 -2.40279,-0.69343 -1.22558,0 -2.70919,0.6773 -1.46748,0.6773 -2.87045,1.61261 l -3.11234,13.44919 -3.03171,0 4.16054,-18.01288 3.03171,0 -0.46766,1.99964 q 1.7255,-1.20946 3.22523,-1.85451 1.51585,-0.64504 3.11234,-0.64504 2.35441,0 3.66063,1.19333 1.32234,1.17721 1.32234,3.41874 z"
             style="font-style:italic;font-variant:normal;font-weight:normal;font-stretch:normal;font-size:33.02630615px;font-family:sans-serif;-inkscape-font-specification:'sans-serif Italic';fill:#ececec"
             id="path19751" />
          <path
             inkscape:connector-curvature="0"
             d="m 557.67324,569.12664 -5.80541,25.09225 -3.03171,0 0.43541,-1.88675 q -2.04802,1.40297 -3.30586,1.88675 -1.24171,0.49991 -2.70919,0.49991 -2.54793,0 -4.04766,-1.61261 -1.4836,-1.61261 -1.4836,-4.6927 0,-2.59631 0.80631,-4.90235 0.8063,-2.32216 2.19315,-4.06378 1.37072,-1.72549 3.24135,-2.72531 1.87063,-1.01595 3.96703,-1.01595 1.43522,0 2.64468,0.3064 1.20946,0.30639 2.25766,0.91919 l 1.80613,-7.80505 3.03171,0 z m -5.41838,10.32072 q -1.08045,-0.56441 -2.12865,-0.82243 -1.03207,-0.27415 -2.20928,-0.27415 -1.67711,0 -2.99946,0.80631 -1.30621,0.80631 -2.24153,2.20928 -0.85468,1.27396 -1.32234,3.06396 -0.45153,1.79 -0.45153,3.46712 0,1.96739 0.83856,3.01559 0.85468,1.03207 2.75756,1.03207 1.3546,0 2.75757,-0.6773 1.4191,-0.6773 2.61243,-1.4836 l 2.38667,-10.33685 z"
             style="font-style:italic;font-variant:normal;font-weight:normal;font-stretch:normal;font-size:33.02630615px;font-family:sans-serif;-inkscape-font-specification:'sans-serif Italic';fill:#ececec"
             id="path19753" />
          <path
             inkscape:connector-curvature="0"
             d="m 568.70351,570.20709 -4.43469,17.40009 -2.74144,0 3.56387,-17.40009 3.61226,0 z m -5.70865,24.0118 -3.28973,0 0.79018,-3.40261 3.28973,0 -0.79018,3.40261 z"
             style="font-style:italic;font-variant:normal;font-weight:normal;font-stretch:normal;font-size:33.02630615px;font-family:sans-serif;-inkscape-font-specification:'sans-serif Italic';fill:#ececec"
             id="path19755" />
        </g>
        <path
           inkscape:connector-curvature="0"
           id="path19651"
           style="font-style:italic;font-variant:normal;font-weight:bold;font-stretch:normal;font-size:99.07891846px;font-family:sans-serif;-inkscape-font-specification:'sans-serif Bold Italic';fill:#4d4d4d"
           d="m 176.91926,522.07815 -9.82081,0 -3.87027,16.7873 -17.75487,0 3.87027,-16.7873 -34.88081,0 3.1446,-13.6427 43.34703,-41.79892 18.91594,0 -9.72405,42.2827 9.82081,0 -3.04784,13.15892 z m -24.52784,-13.15892 5.90216,-25.54378 -26.36621,25.54378 20.46405,0 z" />
        <path
           inkscape:connector-curvature="0"
           id="path19653"
           style="font-style:italic;font-variant:normal;font-weight:bold;font-stretch:normal;font-size:99.07891846px;font-family:sans-serif;-inkscape-font-specification:'sans-serif Bold Italic';fill:#4d4d4d"
           d="m 251.61548,488.79383 q 0,9.96594 -2.32217,19.49648 -2.32216,9.48217 -6.82135,16.40027 -5.1281,7.74055 -11.99783,11.61082 -6.82136,3.87027 -15.57784,3.87027 -12.62676,0 -19.35135,-5.70865 -6.7246,-5.75703 -6.7246,-17.9 0,-10.35298 2.27379,-19.49649 2.27378,-9.19189 6.86973,-16.40027 4.59594,-7.16 11.61081,-11.32054 7.06324,-4.16054 16.11,-4.16054 12.91702,0 19.39973,5.95054 6.53108,5.90216 6.53108,17.65811 z m -18.67406,0.72567 q 0,-5.66027 -2.08027,-8.36946 -2.03189,-2.70918 -6.09567,-2.70918 -3.8219,0 -7.20838,3.43486 -3.33811,3.43486 -5.75703,9.82081 -2.12865,5.56351 -3.24135,12.19135 -1.06432,6.57946 -1.06432,11.94946 0,5.70865 2.03189,8.41784 2.03189,2.66081 6.38594,2.66081 4.16054,0 7.35352,-3.72513 3.19297,-3.77352 5.37,-9.53055 2.03189,-5.37 3.14459,-11.8527 1.16108,-6.4827 1.16108,-12.28811 z" />
        <path
           inkscape:connector-curvature="0"
           id="path19655"
           style="font-style:italic;font-variant:normal;font-weight:bold;font-stretch:normal;font-size:99.07891846px;font-family:sans-serif;-inkscape-font-specification:'sans-serif Bold Italic';fill:#4d4d4d"
           d="m 317.7971,522.07815 -9.82081,0 -3.87027,16.7873 -17.75487,0 3.87027,-16.7873 -34.88081,0 3.1446,-13.6427 43.34702,-41.79892 18.91595,0 -9.72405,42.2827 9.82081,0 -3.04784,13.15892 z m -24.52784,-13.15892 5.90216,-25.54378 -26.36621,25.54378 20.46405,0 z" />
        <path
           inkscape:connector-curvature="0"
           id="path19657"
           style="font-style:italic;font-variant:normal;font-weight:normal;font-stretch:normal;font-size:33.02630615px;font-family:sans-serif;-inkscape-font-specification:'sans-serif Italic';fill:#4d4d4d"
           d="m 147.29557,570.20709 -11.53018,24.0118 -3.69289,0 -0.70955,-19.88351 -9.3209,19.88351 -3.54774,0 -0.9837,-24.0118 3.24135,0 0.64505,19.93189 9.40153,-19.93189 3.24135,0 0.64505,20.12541 9.46603,-20.12541 3.1446,0 z" />
        <path
           inkscape:connector-curvature="0"
           id="path19659"
           style="font-style:italic;font-variant:normal;font-weight:normal;font-stretch:normal;font-size:33.02630615px;font-family:sans-serif;-inkscape-font-specification:'sans-serif Italic';fill:#4d4d4d"
           d="m 161.00278,583.25313 q 0.0806,-0.46766 0.11288,-0.79018 0.0323,-0.32253 0.0323,-0.70955 0,-1.7255 -0.95144,-2.69307 -0.93532,-0.96756 -3.01559,-0.96756 -2.28991,0 -4.06378,1.4191 -1.77387,1.41909 -2.40279,3.74126 l 10.28847,0 z m -6.06343,11.38504 q -3.74126,0 -5.86991,-1.75775 -2.12865,-1.75774 -2.12865,-5.14423 0,-4.95072 3.12847,-8.48234 3.12847,-3.54775 7.74054,-3.54775 3.06397,0 4.6927,1.53198 1.62874,1.51586 1.62874,4.27342 0,0.48379 -0.14513,1.53199 -0.12901,1.0482 -0.43541,2.43504 l -13.2718,0 q -0.0968,0.46766 -0.14513,0.91919 -0.0323,0.45153 -0.0323,0.83856 0,2.27378 1.38685,3.58 1.38685,1.29009 3.93478,1.29009 1.77387,0 3.6445,-0.69342 1.88676,-0.69343 3.16072,-1.56424 l 0.17739,0 -0.66117,3.27361 q -0.80631,0.29027 -1.45135,0.53216 -0.64505,0.24189 -1.64487,0.48378 -0.99982,0.24189 -1.77387,0.3709 -0.77406,0.12901 -1.93514,0.12901 z" />
        <path
           inkscape:connector-curvature="0"
           id="path19661"
           style="font-style:italic;font-variant:normal;font-weight:normal;font-stretch:normal;font-size:33.02630615px;font-family:sans-serif;-inkscape-font-specification:'sans-serif Italic';fill:#4d4d4d"
           d="m 184.40178,581.89853 q 0,2.62856 -0.82243,5.01523 -0.82243,2.38666 -2.19315,4.07991 -1.43523,1.77387 -3.2091,2.75756 -1.77387,0.96757 -3.91865,0.96757 -1.43522,0 -2.69306,-0.38702 -1.24171,-0.37091 -2.22541,-0.99982 l -0.40315,0.88693 -2.8382,0 5.78928,-25.09225 3.03171,0 -2.06414,8.96613 q 1.49973,-1.0482 2.93495,-1.70937 1.43523,-0.6773 3.19298,-0.6773 2.62855,0 4.0154,1.62874 1.40297,1.62874 1.40297,4.56369 z m -4.98297,7.24063 q 0.90306,-1.40297 1.3546,-3.08009 0.45153,-1.67711 0.45153,-3.58 0,-1.91901 -0.83856,-2.95108 -0.83856,-1.0482 -2.67694,-1.0482 -1.33847,0 -2.77369,0.66117 -1.43523,0.66118 -2.67694,1.49973 l -2.37054,10.3046 q 1.03207,0.54829 1.99964,0.85468 0.98369,0.3064 2.33829,0.3064 1.67712,0 2.99946,-0.82243 1.32234,-0.82244 2.19315,-2.14478 z" />
        <path
           inkscape:connector-curvature="0"
           id="path19663"
           style="font-style:italic;font-variant:normal;font-weight:normal;font-stretch:normal;font-size:33.02630615px;font-family:sans-serif;-inkscape-font-specification:'sans-serif Italic';fill:#4d4d4d"
           d="m 192.30359,594.6543 q -2.01577,0 -3.61225,-0.49991 -1.58036,-0.49991 -2.64469,-1.08045 l 0.6773,-3.24135 0.16126,0 q 0.33865,0.29027 0.87081,0.69342 0.54829,0.38703 1.38685,0.77405 0.75792,0.3709 1.72549,0.64505 0.9837,0.25802 2.0964,0.25802 2.27378,0 3.56387,-0.83856 1.29009,-0.83856 1.29009,-2.4673 0,-0.85468 -0.66117,-1.30622 -0.66117,-0.46765 -1.90288,-0.75792 -0.62892,-0.14514 -1.51586,-0.32253 -0.87081,-0.17738 -1.77387,-0.41928 -1.88676,-0.53216 -2.78982,-1.53198 -0.90306,-1.01594 -0.90306,-2.46729 0,-1.25784 0.54828,-2.35442 0.54829,-1.09658 1.62874,-2.01576 1.03208,-0.87082 2.62856,-1.40298 1.59649,-0.54829 3.54775,-0.54829 1.61261,0 3.2091,0.40316 1.61261,0.40315 2.62856,0.99982 l -0.64505,3.09621 -0.16126,0 q -0.25802,-0.20964 -0.79018,-0.56441 -0.51604,-0.35478 -1.32234,-0.72568 -0.69343,-0.30639 -1.62874,-0.53216 -0.91919,-0.22576 -1.91901,-0.22576 -2.01577,0 -3.2736,0.85468 -1.25784,0.83856 -1.25784,2.30604 0,0.8063 0.61279,1.35459 0.61279,0.53216 1.87063,0.83856 0.79018,0.19351 1.64487,0.3709 0.87081,0.16126 1.67711,0.35477 1.87064,0.46766 2.80595,1.45136 0.95144,0.98369 0.95144,2.46729 0,1.24172 -0.59666,2.43505 -0.58055,1.17721 -1.69325,2.04802 -1.14495,0.91919 -2.77369,1.43522 -1.62874,0.51604 -3.66063,0.51604 z" />
        <path
           inkscape:connector-curvature="0"
           id="path19665"
           style="font-style:italic;font-variant:normal;font-weight:normal;font-stretch:normal;font-size:33.02630615px;font-family:sans-serif;-inkscape-font-specification:'sans-serif Italic';fill:#4d4d4d"
           d="m 212.73539,570.04583 -0.72568,3.14459 -3.41874,0 0.72568,-3.14459 3.41874,0 z m -1.61261,6.16018 -4.16054,18.01288 -3.03172,0 4.16054,-18.01288 3.03172,0 z" />
        <path
           inkscape:connector-curvature="0"
           id="path19667"
           style="font-style:italic;font-variant:normal;font-weight:normal;font-stretch:normal;font-size:33.02630615px;font-family:sans-serif;-inkscape-font-specification:'sans-serif Italic';fill:#4d4d4d"
           d="m 226.5071,576.20601 -0.54829,2.45117 -6.25694,0 -1.93513,8.30496 q -0.16127,0.62891 -0.29027,1.45135 -0.12901,0.8063 -0.12901,1.29009 0,1.1772 0.59666,1.75774 0.59667,0.56442 2.20928,0.56442 0.66117,0 1.56424,-0.22577 0.91919,-0.22576 1.24171,-0.35477 l 0.16126,0 -0.56441,2.61243 q -0.90307,0.22577 -1.93514,0.3709 -1.01595,0.14514 -1.80613,0.14514 -2.2254,0 -3.45099,-0.96757 -1.20946,-0.98369 -1.20946,-3.09622 0,-0.51603 0.0645,-1.01594 0.0806,-0.51604 0.20964,-1.16108 l 2.24153,-9.67568 -2.04802,0 0.54829,-2.45117 2.04802,0 1.20946,-5.17649 3.03171,0 -1.20946,5.17649 6.25694,0 z" />
        <path
           inkscape:connector-curvature="0"
           id="path19669"
           style="font-style:italic;font-variant:normal;font-weight:normal;font-stretch:normal;font-size:33.02630615px;font-family:sans-serif;-inkscape-font-specification:'sans-serif Italic';fill:#4d4d4d"
           d="m 240.60134,583.25313 q 0.0806,-0.46766 0.11288,-0.79018 0.0322,-0.32253 0.0322,-0.70955 0,-1.7255 -0.95144,-2.69307 -0.93532,-0.96756 -3.01559,-0.96756 -2.28991,0 -4.06378,1.4191 -1.77387,1.41909 -2.40279,3.74126 l 10.28847,0 z m -6.06343,11.38504 q -3.74126,0 -5.86991,-1.75775 -2.12865,-1.75774 -2.12865,-5.14423 0,-4.95072 3.12847,-8.48234 3.12847,-3.54775 7.74054,-3.54775 3.06397,0 4.69271,1.53198 1.62873,1.51586 1.62873,4.27342 0,0.48379 -0.14513,1.53199 -0.12901,1.0482 -0.43541,2.43504 l -13.2718,0 q -0.0968,0.46766 -0.14513,0.91919 -0.0323,0.45153 -0.0323,0.83856 0,2.27378 1.38685,3.58 1.38685,1.29009 3.93478,1.29009 1.77387,0 3.6445,-0.69342 1.88676,-0.69343 3.16072,-1.56424 l 0.17739,0 -0.66117,3.27361 q -0.80631,0.29027 -1.45135,0.53216 -0.64505,0.24189 -1.64487,0.48378 -0.99982,0.24189 -1.77387,0.3709 -0.77406,0.12901 -1.93514,0.12901 z" />
        <path
           inkscape:connector-curvature="0"
           id="path19671"
           style="font-style:italic;font-variant:normal;font-weight:normal;font-stretch:normal;font-size:33.02630615px;font-family:sans-serif;-inkscape-font-specification:'sans-serif Italic';fill:#4d4d4d"
           d="m 270.49916,584.7206 q -2.48342,0.0968 -4.41855,0.38703 -1.91901,0.27415 -3.17685,0.80631 -1.30622,0.53216 -1.98351,1.45135 -0.6773,0.90306 -0.6773,2.25766 0,1.16108 0.79018,1.77387 0.79018,0.61279 2.45117,0.61279 1.46748,0 2.98333,-0.64504 1.53198,-0.66117 2.85433,-1.58036 l 1.1772,-5.06361 z m -1.75774,7.57928 q -0.43541,0.25802 -1.19334,0.74181 -0.7418,0.46765 -1.51585,0.8063 -0.82244,0.3709 -1.83838,0.61279 -1.01595,0.25802 -2.33829,0.25802 -2.14477,0 -3.48324,-1.24171 -1.33847,-1.25784 -1.33847,-3.2736 0,-2.14478 0.93531,-3.61226 0.95145,-1.4836 2.80595,-2.41891 1.82225,-0.91919 4.38631,-1.32235 2.58018,-0.41928 5.86991,-0.51603 0.0967,-0.45153 0.16126,-0.77406 0.0645,-0.33865 0.0645,-0.69342 0,-0.77405 -0.30639,-1.25784 -0.3064,-0.48378 -0.87081,-0.77405 -0.56442,-0.29027 -1.32235,-0.38703 -0.7418,-0.11288 -1.64486,-0.11288 -1.37072,0 -3.12847,0.45153 -1.75775,0.43541 -2.85432,0.87081 l -0.16127,0 0.59667,-3.03171 q 0.91919,-0.24189 2.69306,-0.54829 1.77388,-0.3064 3.40262,-0.3064 3.35423,0 5.03135,1.0482 1.67711,1.0482 1.67711,3.32198 0,0.43541 -0.0806,0.93532 -0.0645,0.48378 -0.16126,0.91919 l -2.82207,12.2236 -3.01558,0 0.45153,-1.91901 z" />
        <path
           inkscape:connector-curvature="0"
           id="path19673"
           style="font-style:italic;font-variant:normal;font-weight:normal;font-stretch:normal;font-size:33.02630615px;font-family:sans-serif;-inkscape-font-specification:'sans-serif Italic';fill:#4d4d4d"
           d="m 297.59107,569.12664 -5.80541,25.09225 -3.03171,0 0.43541,-1.88675 q -2.04802,1.40297 -3.30586,1.88675 -1.24171,0.49991 -2.70919,0.49991 -2.54792,0 -4.04765,-1.61261 -1.48361,-1.61261 -1.48361,-4.6927 0,-2.59631 0.80631,-4.90235 0.8063,-2.32216 2.19315,-4.06378 1.37072,-1.72549 3.24135,-2.72531 1.87063,-1.01595 3.96703,-1.01595 1.43522,0 2.64468,0.3064 1.20946,0.30639 2.25766,0.91919 l 1.80613,-7.80505 3.03171,0 z m -5.41838,10.32072 q -1.08045,-0.56441 -2.12865,-0.82243 -1.03207,-0.27415 -2.20928,-0.27415 -1.67711,0 -2.99946,0.80631 -1.30621,0.80631 -2.24153,2.20928 -0.85468,1.27396 -1.32234,3.06396 -0.45153,1.79 -0.45153,3.46712 0,1.96739 0.83856,3.01559 0.85468,1.03207 2.75756,1.03207 1.3546,0 2.75757,-0.6773 1.4191,-0.6773 2.61243,-1.4836 l 2.38667,-10.33685 z" />
        <path
           inkscape:connector-curvature="0"
           id="path19675"
           style="font-style:italic;font-variant:normal;font-weight:normal;font-stretch:normal;font-size:33.02630615px;font-family:sans-serif;-inkscape-font-specification:'sans-serif Italic';fill:#4d4d4d"
           d="m 318.168,569.12664 -5.8054,25.09225 -3.03171,0 0.4354,-1.88675 q -2.04801,1.40297 -3.30585,1.88675 -1.24171,0.49991 -2.70919,0.49991 -2.54793,0 -4.04766,-1.61261 -1.4836,-1.61261 -1.4836,-4.6927 0,-2.59631 0.8063,-4.90235 0.80631,-2.32216 2.19316,-4.06378 1.37072,-1.72549 3.24135,-2.72531 1.87063,-1.01595 3.96702,-1.01595 1.43523,0 2.64469,0.3064 1.20946,0.30639 2.25766,0.91919 l 1.80612,-7.80505 3.03171,0 z m -5.41837,10.32072 q -1.08045,-0.56441 -2.12865,-0.82243 -1.03207,-0.27415 -2.20928,-0.27415 -1.67712,0 -2.99946,0.80631 -1.30622,0.80631 -2.24153,2.20928 -0.85469,1.27396 -1.32234,3.06396 -0.45154,1.79 -0.45154,3.46712 0,1.96739 0.83856,3.01559 0.85469,1.03207 2.75757,1.03207 1.35459,0 2.75757,-0.6773 1.4191,-0.6773 2.61243,-1.4836 l 2.38667,-10.33685 z" />
        <path
           inkscape:connector-curvature="0"
           id="path19677"
           style="font-style:italic;font-variant:normal;font-weight:normal;font-stretch:normal;font-size:33.02630615px;font-family:sans-serif;-inkscape-font-specification:'sans-serif Italic';fill:#4d4d4d"
           d="m 332.87503,579.39898 -0.16126,0 q -0.64505,-0.16126 -1.20946,-0.22576 -0.54829,-0.0806 -1.33847,-0.0806 -1.51586,0 -3.01559,0.69342 -1.4836,0.6773 -2.85432,1.64486 l -2.9027,12.78802 -3.06397,0 4.11217,-18.01288 3.06396,0 -0.61279,2.66081 q 2.14477,-1.49973 3.62838,-2.08027 1.49973,-0.58054 2.87045,-0.58054 0.79018,0 1.14495,0.0484 0.35478,0.0323 1.03207,0.14513 l -0.69342,2.99946 z" />
        <path
           inkscape:connector-curvature="0"
           id="path19679"
           style="font-style:italic;font-variant:normal;font-weight:normal;font-stretch:normal;font-size:33.02630615px;font-family:sans-serif;-inkscape-font-specification:'sans-serif Italic';fill:#4d4d4d"
           d="m 347.03376,583.25313 q 0.0806,-0.46766 0.11288,-0.79018 0.0323,-0.32253 0.0323,-0.70955 0,-1.7255 -0.95144,-2.69307 -0.93532,-0.96756 -3.01559,-0.96756 -2.28991,0 -4.06378,1.4191 -1.77388,1.41909 -2.4028,3.74126 l 10.28847,0 z m -6.06342,11.38504 q -3.74126,0 -5.86991,-1.75775 -2.12865,-1.75774 -2.12865,-5.14423 0,-4.95072 3.12847,-8.48234 3.12847,-3.54775 7.74054,-3.54775 3.06396,0 4.6927,1.53198 1.62874,1.51586 1.62874,4.27342 0,0.48379 -0.14513,1.53199 -0.12901,1.0482 -0.43541,2.43504 l -13.2718,0 q -0.0968,0.46766 -0.14514,0.91919 -0.0323,0.45153 -0.0323,0.83856 0,2.27378 1.38685,3.58 1.38684,1.29009 3.93477,1.29009 1.77388,0 3.64451,-0.69342 1.88675,-0.69343 3.16072,-1.56424 l 0.17738,0 -0.66117,3.27361 q -0.8063,0.29027 -1.45135,0.53216 -0.64504,0.24189 -1.64486,0.48378 -0.99982,0.24189 -1.77388,0.3709 -0.77405,0.12901 -1.93513,0.12901 z" />
        <path
           inkscape:connector-curvature="0"
           id="path19681"
           style="font-style:italic;font-variant:normal;font-weight:normal;font-stretch:normal;font-size:33.02630615px;font-family:sans-serif;-inkscape-font-specification:'sans-serif Italic';fill:#4d4d4d"
           d="m 357.75764,594.6543 q -2.01577,0 -3.61226,-0.49991 -1.58036,-0.49991 -2.64468,-1.08045 l 0.6773,-3.24135 0.16126,0 q 0.33865,0.29027 0.87081,0.69342 0.54829,0.38703 1.38685,0.77405 0.75792,0.3709 1.72549,0.64505 0.98369,0.25802 2.0964,0.25802 2.27378,0 3.56387,-0.83856 1.29009,-0.83856 1.29009,-2.4673 0,-0.85468 -0.66117,-1.30622 -0.66117,-0.46765 -1.90288,-0.75792 -0.62892,-0.14514 -1.51586,-0.32253 -0.87081,-0.17738 -1.77387,-0.41928 -1.88676,-0.53216 -2.78982,-1.53198 -0.90307,-1.01594 -0.90307,-2.46729 0,-1.25784 0.54829,-2.35442 0.54829,-1.09658 1.62874,-2.01576 1.03207,-0.87082 2.62856,-1.40298 1.59649,-0.54829 3.54775,-0.54829 1.61261,0 3.2091,0.40316 1.61261,0.40315 2.62856,0.99982 l -0.64505,3.09621 -0.16126,0 q -0.25802,-0.20964 -0.79018,-0.56441 -0.51604,-0.35478 -1.32234,-0.72568 -0.69343,-0.30639 -1.62874,-0.53216 -0.91919,-0.22576 -1.91901,-0.22576 -2.01577,0 -3.2736,0.85468 -1.25784,0.83856 -1.25784,2.30604 0,0.8063 0.61279,1.35459 0.61279,0.53216 1.87063,0.83856 0.79018,0.19351 1.64487,0.3709 0.87081,0.16126 1.67711,0.35477 1.87063,0.46766 2.80595,1.45136 0.95144,0.98369 0.95144,2.46729 0,1.24172 -0.59667,2.43505 -0.58054,1.17721 -1.69324,2.04802 -1.14495,0.91919 -2.77369,1.43522 -1.62874,0.51604 -3.66063,0.51604 z" />
        <path
           inkscape:connector-curvature="0"
           id="path19683"
           style="font-style:italic;font-variant:normal;font-weight:normal;font-stretch:normal;font-size:33.02630615px;font-family:sans-serif;-inkscape-font-specification:'sans-serif Italic';fill:#4d4d4d"
           d="m 374.98034,594.6543 q -2.01577,0 -3.61225,-0.49991 -1.58036,-0.49991 -2.64469,-1.08045 l 0.6773,-3.24135 0.16126,0 q 0.33865,0.29027 0.87081,0.69342 0.54829,0.38703 1.38685,0.77405 0.75793,0.3709 1.72549,0.64505 0.9837,0.25802 2.0964,0.25802 2.27378,0 3.56387,-0.83856 1.29009,-0.83856 1.29009,-2.4673 0,-0.85468 -0.66117,-1.30622 -0.66117,-0.46765 -1.90288,-0.75792 -0.62892,-0.14514 -1.51586,-0.32253 -0.87081,-0.17738 -1.77387,-0.41928 -1.88676,-0.53216 -2.78982,-1.53198 -0.90306,-1.01594 -0.90306,-2.46729 0,-1.25784 0.54828,-2.35442 0.54829,-1.09658 1.62874,-2.01576 1.03208,-0.87082 2.62856,-1.40298 1.59649,-0.54829 3.54775,-0.54829 1.61261,0 3.2091,0.40316 1.61261,0.40315 2.62856,0.99982 l -0.64505,3.09621 -0.16126,0 q -0.25802,-0.20964 -0.79018,-0.56441 -0.51604,-0.35478 -1.32234,-0.72568 -0.69342,-0.30639 -1.62874,-0.53216 -0.91919,-0.22576 -1.91901,-0.22576 -2.01576,0 -3.2736,0.85468 -1.25784,0.83856 -1.25784,2.30604 0,0.8063 0.61279,1.35459 0.61279,0.53216 1.87063,0.83856 0.79018,0.19351 1.64487,0.3709 0.87081,0.16126 1.67711,0.35477 1.87064,0.46766 2.80595,1.45136 0.95144,0.98369 0.95144,2.46729 0,1.24172 -0.59666,2.43505 -0.58055,1.17721 -1.69325,2.04802 -1.14495,0.91919 -2.77369,1.43522 -1.62874,0.51604 -3.66063,0.51604 z" />
        <path
           inkscape:connector-curvature="0"
           id="path19685"
           style="font-style:italic;font-variant:normal;font-weight:normal;font-stretch:normal;font-size:33.02630615px;font-family:sans-serif;-inkscape-font-specification:'sans-serif Italic';fill:#4d4d4d"
           d="m 416.23098,580.31817 q 0,0.38703 -0.0806,1.0482 -0.0645,0.66117 -0.19351,1.16108 l -2.70919,11.69144 -3.03171,0 2.37054,-10.25621 q 0.19351,-0.85469 0.29027,-1.48361 0.11288,-0.64504 0.11288,-1.27396 0,-1.3546 -0.6773,-2.03189 -0.66117,-0.69343 -2.40279,-0.69343 -1.22559,0 -2.70919,0.6773 -1.46748,0.6773 -2.87045,1.61261 l -3.11234,13.44919 -3.03171,0 4.16054,-18.01288 3.03171,0 -0.46766,1.99964 q 1.7255,-1.20946 3.22523,-1.85451 1.51585,-0.64504 3.11234,-0.64504 2.35441,0 3.66063,1.19333 1.32234,1.17721 1.32234,3.41874 z" />
        <path
           inkscape:connector-curvature="0"
           id="path19687"
           style="font-style:italic;font-variant:normal;font-weight:normal;font-stretch:normal;font-size:33.02630615px;font-family:sans-serif;-inkscape-font-specification:'sans-serif Italic';fill:#4d4d4d"
           d="m 436.79178,582.57583 q 0,2.41892 -0.7418,4.64432 -0.74181,2.22541 -2.0964,3.87027 -1.40297,1.70937 -3.24135,2.67694 -1.83838,0.95144 -4.28955,0.95144 -3.2091,0 -5.01523,-1.82225 -1.79,-1.83838 -1.79,-5.0636 0,-2.41892 0.72568,-4.61208 0.7418,-2.19315 2.12865,-3.90252 1.33847,-1.64486 3.2736,-2.62856 1.95126,-0.98369 4.2573,-0.98369 3.11234,0 4.95072,1.77387 1.83838,1.77388 1.83838,5.09586 z m -4.9346,6.80522 q 0.87081,-1.29009 1.32235,-2.98333 0.46765,-1.69324 0.46765,-3.58 0,-2.25766 -1.08045,-3.41874 -1.08045,-1.16108 -3.04784,-1.16108 -1.56423,0 -2.80594,0.75793 -1.24171,0.7418 -2.14478,2.04802 -0.87081,1.27396 -1.33846,2.98333 -0.46766,1.70937 -0.46766,3.54775 0,2.2254 1.08045,3.41874 1.08045,1.19333 3.06396,1.19333 1.54811,0 2.80595,-0.7418 1.25784,-0.7418 2.14477,-2.06415 z" />
        <path
           inkscape:connector-curvature="0"
           id="path19689"
           style="font-style:italic;font-variant:normal;font-weight:normal;font-stretch:normal;font-size:33.02630615px;font-family:sans-serif;-inkscape-font-specification:'sans-serif Italic';fill:#4d4d4d"
           d="m 452.6599,576.20601 -0.54829,2.45117 -6.25694,0 -1.93513,8.30496 q -0.16126,0.62891 -0.29027,1.45135 -0.12901,0.8063 -0.12901,1.29009 0,1.1772 0.59666,1.75774 0.59667,0.56442 2.20928,0.56442 0.66118,0 1.56424,-0.22577 0.91919,-0.22576 1.24171,-0.35477 l 0.16126,0 -0.56441,2.61243 q -0.90307,0.22577 -1.93514,0.3709 -1.01594,0.14514 -1.80612,0.14514 -2.22541,0 -3.451,-0.96757 -1.20945,-0.98369 -1.20945,-3.09622 0,-0.51603 0.0645,-1.01594 0.0806,-0.51604 0.20964,-1.16108 l 2.24153,-9.67568 -2.04802,0 0.54829,-2.45117 2.04802,0 1.20946,-5.17649 3.03171,0 -1.20946,5.17649 6.25694,0 z" />
        <path
           inkscape:connector-curvature="0"
           id="path19691"
           style="font-style:italic;font-variant:normal;font-weight:normal;font-stretch:normal;font-size:33.02630615px;font-family:sans-serif;-inkscape-font-specification:'sans-serif Italic';fill:#4d4d4d"
           d="m 478.44557,571.94871 -0.16126,0 q -0.46766,-0.16126 -1.24171,-0.30639 -0.77406,-0.14514 -1.38685,-0.14514 -1.98351,0 -2.98333,0.99982 -0.9837,0.99982 -1.48361,3.09622 l -0.14513,0.61279 5.46675,0 -0.58054,2.41892 -5.37,0 -3.51549,15.59396 -3.06397,0 3.5155,-15.59396 -2.04802,0 0.58054,-2.41892 2.04802,0 0.12901,-0.59667 q 0.66117,-3.16072 2.58018,-4.90234 1.93513,-1.74162 4.96685,-1.74162 1.01594,0 1.83837,0.0968 0.82244,0.0968 1.48361,0.22576 l -0.62892,2.66081 z" />
        <path
           inkscape:connector-curvature="0"
           id="path19693"
           style="font-style:italic;font-variant:normal;font-weight:normal;font-stretch:normal;font-size:33.02630615px;font-family:sans-serif;-inkscape-font-specification:'sans-serif Italic';fill:#4d4d4d"
           d="m 493.10422,582.57583 q 0,2.41892 -0.74181,4.64432 -0.7418,2.22541 -2.09639,3.87027 -1.40297,1.70937 -3.24135,2.67694 -1.83838,0.95144 -4.28955,0.95144 -3.2091,0 -5.01523,-1.82225 -1.79,-1.83838 -1.79,-5.0636 0,-2.41892 0.72568,-4.61208 0.7418,-2.19315 2.12865,-3.90252 1.33847,-1.64486 3.2736,-2.62856 1.95126,-0.98369 4.2573,-0.98369 3.11234,0 4.95072,1.77387 1.83838,1.77388 1.83838,5.09586 z m -4.9346,6.80522 q 0.87081,-1.29009 1.32234,-2.98333 0.46766,-1.69324 0.46766,-3.58 0,-2.25766 -1.08045,-3.41874 -1.08045,-1.16108 -3.04784,-1.16108 -1.56423,0 -2.80594,0.75793 -1.24171,0.7418 -2.14478,2.04802 -0.87081,1.27396 -1.33847,2.98333 -0.46765,1.70937 -0.46765,3.54775 0,2.2254 1.08045,3.41874 1.08045,1.19333 3.06396,1.19333 1.54811,0 2.80595,-0.7418 1.25784,-0.7418 2.14477,-2.06415 z" />
        <path
           inkscape:connector-curvature="0"
           id="path19695"
           style="font-style:italic;font-variant:normal;font-weight:normal;font-stretch:normal;font-size:33.02630615px;font-family:sans-serif;-inkscape-font-specification:'sans-serif Italic';fill:#4d4d4d"
           d="m 514.55198,576.20601 -4.16054,18.01288 -3.03172,0 0.46766,-1.99964 q -1.72549,1.17721 -3.22522,1.83838 -1.48361,0.66117 -3.1446,0.66117 -2.32216,0 -3.62838,-1.16108 -1.30621,-1.17721 -1.30621,-3.41874 0,-0.54829 0.0645,-1.06432 0.0806,-0.51604 0.20964,-1.17721 l 2.69306,-11.69144 3.03172,0 -2.37054,10.25622 q -0.14514,0.62891 -0.27415,1.43522 -0.12901,0.80631 -0.12901,1.27396 0,1.38685 0.69343,2.08028 0.70955,0.69342 2.40279,0.69342 1.19333,0 2.72531,-0.69342 1.54811,-0.69343 2.85433,-1.59649 l 3.09621,-13.44919 3.03172,0 z" />
        <path
           inkscape:connector-curvature="0"
           id="path19697"
           style="font-style:italic;font-variant:normal;font-weight:normal;font-stretch:normal;font-size:33.02630615px;font-family:sans-serif;-inkscape-font-specification:'sans-serif Italic';fill:#4d4d4d"
           d="m 534.40322,580.31817 q 0,0.38703 -0.0806,1.0482 -0.0645,0.66117 -0.19351,1.16108 l -2.70919,11.69144 -3.03171,0 2.37054,-10.25621 q 0.19351,-0.85469 0.29027,-1.48361 0.11288,-0.64504 0.11288,-1.27396 0,-1.3546 -0.6773,-2.03189 -0.66117,-0.69343 -2.40279,-0.69343 -1.22558,0 -2.70919,0.6773 -1.46748,0.6773 -2.87045,1.61261 l -3.11234,13.44919 -3.03171,0 4.16054,-18.01288 3.03171,0 -0.46766,1.99964 q 1.7255,-1.20946 3.22523,-1.85451 1.51585,-0.64504 3.11234,-0.64504 2.35441,0 3.66063,1.19333 1.32234,1.17721 1.32234,3.41874 z" />
        <path
           inkscape:connector-curvature="0"
           id="path19699"
           style="font-style:italic;font-variant:normal;font-weight:normal;font-stretch:normal;font-size:33.02630615px;font-family:sans-serif;-inkscape-font-specification:'sans-serif Italic';fill:#4d4d4d"
           d="m 557.67324,569.12664 -5.80541,25.09225 -3.03171,0 0.43541,-1.88675 q -2.04802,1.40297 -3.30586,1.88675 -1.24171,0.49991 -2.70919,0.49991 -2.54793,0 -4.04766,-1.61261 -1.4836,-1.61261 -1.4836,-4.6927 0,-2.59631 0.80631,-4.90235 0.8063,-2.32216 2.19315,-4.06378 1.37072,-1.72549 3.24135,-2.72531 1.87063,-1.01595 3.96703,-1.01595 1.43522,0 2.64468,0.3064 1.20946,0.30639 2.25766,0.91919 l 1.80613,-7.80505 3.03171,0 z m -5.41838,10.32072 q -1.08045,-0.56441 -2.12865,-0.82243 -1.03207,-0.27415 -2.20928,-0.27415 -1.67711,0 -2.99946,0.80631 -1.30621,0.80631 -2.24153,2.20928 -0.85468,1.27396 -1.32234,3.06396 -0.45153,1.79 -0.45153,3.46712 0,1.96739 0.83856,3.01559 0.85468,1.03207 2.75756,1.03207 1.3546,0 2.75757,-0.6773 1.4191,-0.6773 2.61243,-1.4836 l 2.38667,-10.33685 z" />
        <path
           inkscape:connector-curvature="0"
           id="path19701"
           style="font-style:italic;font-variant:normal;font-weight:normal;font-stretch:normal;font-size:33.02630615px;font-family:sans-serif;-inkscape-font-specification:'sans-serif Italic';fill:#4d4d4d"
           d="m 568.70351,570.20709 -4.43469,17.40009 -2.74144,0 3.56387,-17.40009 3.61226,0 z m -5.70865,24.0118 -3.28973,0 0.79018,-3.40261 3.28973,0 -0.79018,3.40261 z" />
      </g>
    </g>
  </g>
</svg>
